<svg xmlns="http://www.w3.org/2000/svg" version="1.1" xmlns:xlink="http://www.w3.org/1999/xlink" xmlns:svgjs="http://svgjs.dev/svgjs" viewBox="0 0 2400 800"><g fill="hsl(230, 55%, 40%)" transform="matrix(1,0,0,1,9.6998291015625,249.06871032714844)"><path d="M-10,10C30.544871794871796,13.541666666666668,105.60897435897436,37,184.6153846153846,27C263.62179487179486,17,292.3076923076923,-41.333333333333336,369.2307692307692,-38C446.15384615384613,-34.666666666666664,476.9230769230769,41.333333333333336,553.8461538461538,43C630.7692307692307,44.666666666666664,661.5384615384615,-29.583333333333332,738.4615384615385,-30C815.3846153846154,-30.416666666666668,846.1538461538462,39.125,923.0769230769231,41C1000,42.875,1030.7692307692307,-19.333333333333332,1107.6923076923076,-21C1184.6153846153845,-22.666666666666668,1215.3846153846155,27.583333333333336,1292.3076923076924,33C1369.2307692307693,38.416666666666664,1400,2.083333333333333,1476.923076923077,5C1553.8461538461538,7.916666666666667,1584.6153846153845,46.791666666666664,1661.5384615384614,47C1738.4615384615383,47.208333333333336,1769.2307692307693,2.666666666666667,1846.1538461538462,6C1923.076923076923,9.333333333333332,1953.8461538461538,65.70833333333333,2030.7692307692307,63C2107.6923076923076,60.291666666666664,2138.461538461538,-7.833333333333333,2215.3846153846152,-7C2292.3076923076924,-6.166666666666667,2309.455128205128,-17.791666666666657,2400,67C2490.544871794872,151.79166666666666,3254.1666666666665,226.45833333333331,2650,400C2045.8333333333335,573.5416666666667,156.25,795.8333333333334,-500,900" transform="matrix(1,0,0,1,0,40)" opacity="0.05"></path><path d="M-10,10C30.544871794871796,13.541666666666668,105.60897435897436,37,184.6153846153846,27C263.62179487179486,17,292.3076923076923,-41.333333333333336,369.2307692307692,-38C446.15384615384613,-34.666666666666664,476.9230769230769,41.333333333333336,553.8461538461538,43C630.7692307692307,44.666666666666664,661.5384615384615,-29.583333333333332,738.4615384615385,-30C815.3846153846154,-30.416666666666668,846.1538461538462,39.125,923.0769230769231,41C1000,42.875,1030.7692307692307,-19.333333333333332,1107.6923076923076,-21C1184.6153846153845,-22.666666666666668,1215.3846153846155,27.583333333333336,1292.3076923076924,33C1369.2307692307693,38.416666666666664,1400,2.083333333333333,1476.923076923077,5C1553.8461538461538,7.916666666666667,1584.6153846153845,46.791666666666664,1661.5384615384614,47C1738.4615384615383,47.208333333333336,1769.2307692307693,2.666666666666667,1846.1538461538462,6C1923.076923076923,9.333333333333332,1953.8461538461538,65.70833333333333,2030.7692307692307,63C2107.6923076923076,60.291666666666664,2138.461538461538,-7.833333333333333,2215.3846153846152,-7C2292.3076923076924,-6.166666666666667,2309.455128205128,-17.791666666666657,2400,67C2490.544871794872,151.79166666666666,3254.1666666666665,226.45833333333331,2650,400C2045.8333333333335,573.5416666666667,156.25,795.8333333333334,-500,900" transform="matrix(1,0,0,1,0,80)" opacity="0.29"></path><path d="M-10,10C30.544871794871796,13.541666666666668,105.60897435897436,37,184.6153846153846,27C263.62179487179486,17,292.3076923076923,-41.333333333333336,369.2307692307692,-38C446.15384615384613,-34.666666666666664,476.9230769230769,41.333333333333336,553.8461538461538,43C630.7692307692307,44.666666666666664,661.5384615384615,-29.583333333333332,738.4615384615385,-30C815.3846153846154,-30.416666666666668,846.1538461538462,39.125,923.0769230769231,41C1000,42.875,1030.7692307692307,-19.333333333333332,1107.6923076923076,-21C1184.6153846153845,-22.666666666666668,1215.3846153846155,27.583333333333336,1292.3076923076924,33C1369.2307692307693,38.416666666666664,1400,2.083333333333333,1476.923076923077,5C1553.8461538461538,7.916666666666667,1584.6153846153845,46.791666666666664,1661.5384615384614,47C1738.4615384615383,47.208333333333336,1769.2307692307693,2.666666666666667,1846.1538461538462,6C1923.076923076923,9.333333333333332,1953.8461538461538,65.70833333333333,2030.7692307692307,63C2107.6923076923076,60.291666666666664,2138.461538461538,-7.833333333333333,2215.3846153846152,-7C2292.3076923076924,-6.166666666666667,2309.455128205128,-17.791666666666657,2400,67C2490.544871794872,151.79166666666666,3254.1666666666665,226.45833333333331,2650,400C2045.8333333333335,573.5416666666667,156.25,795.8333333333334,-500,900" transform="matrix(1,0,0,1,0,120)" opacity="0.53"></path><path d="M-10,10C30.544871794871796,13.541666666666668,105.60897435897436,37,184.6153846153846,27C263.62179487179486,17,292.3076923076923,-41.333333333333336,369.2307692307692,-38C446.15384615384613,-34.666666666666664,476.9230769230769,41.333333333333336,553.8461538461538,43C630.7692307692307,44.666666666666664,661.5384615384615,-29.583333333333332,738.4615384615385,-30C815.3846153846154,-30.416666666666668,846.1538461538462,39.125,923.0769230769231,41C1000,42.875,1030.7692307692307,-19.333333333333332,1107.6923076923076,-21C1184.6153846153845,-22.666666666666668,1215.3846153846155,27.583333333333336,1292.3076923076924,33C1369.2307692307693,38.416666666666664,1400,2.083333333333333,1476.923076923077,5C1553.8461538461538,7.916666666666667,1584.6153846153845,46.791666666666664,1661.5384615384614,47C1738.4615384615383,47.208333333333336,1769.2307692307693,2.666666666666667,1846.1538461538462,6C1923.076923076923,9.333333333333332,1953.8461538461538,65.70833333333333,2030.7692307692307,63C2107.6923076923076,60.291666666666664,2138.461538461538,-7.833333333333333,2215.3846153846152,-7C2292.3076923076924,-6.166666666666667,2309.455128205128,-17.791666666666657,2400,67C2490.544871794872,151.79166666666666,3254.1666666666665,226.45833333333331,2650,400C2045.8333333333335,573.5416666666667,156.25,795.8333333333334,-500,900" transform="matrix(1,0,0,1,0,160)" opacity="0.76"></path><path d="M-10,10C30.544871794871796,13.541666666666668,105.60897435897436,37,184.6153846153846,27C263.62179487179486,17,292.3076923076923,-41.333333333333336,369.2307692307692,-38C446.15384615384613,-34.666666666666664,476.9230769230769,41.333333333333336,553.8461538461538,43C630.7692307692307,44.666666666666664,661.5384615384615,-29.583333333333332,738.4615384615385,-30C815.3846153846154,-30.416666666666668,846.1538461538462,39.125,923.0769230769231,41C1000,42.875,1030.7692307692307,-19.333333333333332,1107.6923076923076,-21C1184.6153846153845,-22.666666666666668,1215.3846153846155,27.583333333333336,1292.3076923076924,33C1369.2307692307693,38.416666666666664,1400,2.083333333333333,1476.923076923077,5C1553.8461538461538,7.916666666666667,1584.6153846153845,46.791666666666664,1661.5384615384614,47C1738.4615384615383,47.208333333333336,1769.2307692307693,2.666666666666667,1846.1538461538462,6C1923.076923076923,9.333333333333332,1953.8461538461538,65.70833333333333,2030.7692307692307,63C2107.6923076923076,60.291666666666664,2138.461538461538,-7.833333333333333,2215.3846153846152,-7C2292.3076923076924,-6.166666666666667,2309.455128205128,-17.791666666666657,2400,67C2490.544871794872,151.79166666666666,3254.1666666666665,226.45833333333331,2650,400C2045.8333333333335,573.5416666666667,156.25,795.8333333333334,-500,900" transform="matrix(1,0,0,1,0,200)" opacity="1.00"></path></g></svg>